HIERARCHY
ROOT hip
{
	OFFSET 0.000000 0.000000 0.000000 
	CHANNELS 6 Xposition Yposition Zposition Xrotation Zrotation Yrotation
	JOINT abdomen
	{
		OFFSET 0.000000 3.402643 0.000000 
		CHANNELS 3 Xrotation Zrotation Yrotation
		JOINT chest
		{
			OFFSET 0.000000 8.438565 -0.680529 
			CHANNELS 3 Xrotation Zrotation Yrotation
			JOINT neck
			{
				OFFSET 0.000000 10.207942 -0.272212 
				CHANNELS 3 Xrotation Zrotation Yrotation
				JOINT head
				{
					OFFSET 0.000000 3.130431 0.000000 
					CHANNELS 3 Xrotation Zrotation Yrotation
					End Site
					{
						OFFSET 0.000000 3.130435 0.000000 
					}
				}
			}
			JOINT lCollar
			{
				OFFSET 3.470700 6.669187 -0.816635 
				CHANNELS 3 Yrotation Zrotation Xrotation
				JOINT lShldr
				{
					OFFSET 3.198488 0.000000 0.000000 
					CHANNELS 3 Zrotation Yrotation Xrotation
					JOINT lForeArm
					{
						OFFSET 10.139888 0.000000 0.000000 
						CHANNELS 3 Yrotation Zrotation Xrotation
						JOINT lHand
						{
							OFFSET 8.370511 0.000000 0.000000 
							CHANNELS 3 Zrotation Yrotation Xrotation
							End Site
							{
								OFFSET 4.083176 0.000000 0.000000 
							}
						}
					}
				}
			}
			JOINT rCollar
			{
				OFFSET -3.470700 6.669187 -0.816635 
				CHANNELS 3 Yrotation Zrotation Xrotation
				JOINT rShldr
				{
					OFFSET -3.198488 0.000000 0.000000 
					CHANNELS 3 Zrotation Yrotation Xrotation
					JOINT rForeArm
					{
						OFFSET -10.139888 0.000000 0.000000 
						CHANNELS 3 Yrotation Zrotation Xrotation
						JOINT rHand
						{
							OFFSET -8.370511 0.000000 0.000000 
							CHANNELS 3 Zrotation Yrotation Xrotation
							End Site
							{
								OFFSET -4.083176 0.000000 0.000000 
							}
						}
					}
				}
			}
		}
	}
	JOINT lThigh
	{
		OFFSET 5.308129 -1.633274 1.361059 
		CHANNELS 3 Xrotation Zrotation Yrotation
		JOINT lShin
		{
			OFFSET -2.041588 -20.007561 0.000000 
			CHANNELS 3 Xrotation Zrotation Yrotation
			JOINT lFoot
			{
				OFFSET 0.000000 -19.190928 -1.224953 
				CHANNELS 3 Xrotation Yrotation Zrotation
				End Site
				{
					OFFSET 0.000000 -2.449906 4.627600 
				}
			}
		}
	}
	JOINT rThigh
	{
		OFFSET -5.308129 -1.633274 1.361059 
		CHANNELS 3 Xrotation Zrotation Yrotation
		JOINT rShin
		{
			OFFSET 2.041588 -20.007561 0.000000 
			CHANNELS 3 Xrotation Zrotation Yrotation
			JOINT rFoot
			{
				OFFSET 0.000000 -19.190928 -1.224953 
				CHANNELS 3 Xrotation Yrotation Zrotation
				End Site
				{
					OFFSET 0.000000 -2.449906 4.627600 
				}
			}
		}
	}
}
MOTION
Frames: 11
Frame Time: 0.016667
-53.162048 51.995441 55.893154 1.932481 11.091353 -42.425495 20.294455 1.044711 1.152686 -39.312973 -6.225452 2.307856 -10.260269 -11.876575 -12.539563 7.637769 -0.725863 -15.138071 -0.156531 -1.650364 -0.009762 -71.210823 18.260031 -5.931788 -23.649521 0.780314 7.546876 -13.896239 11.430114 -2.814853 16.649281 -6.770377 -0.009291 -2.648762 23.613560 -84.856850 45.283283 -3.227593 38.578091 1.925578 -12.590146 -0.440697 -6.151064 12.056592 10.205716 9.077730 -1.767304 -1.205044 25.152863 -17.827936 -4.460727 -8.297066 -5.367894 -7.984863 9.759749 1.737090 1.190833 -17.451870 -8.858056 9.319520 
-53.099350 52.002193 55.951260 2.058529 11.214419 -42.316055 20.107830 1.034964 1.103865 -39.461678 -5.776947 2.217442 -10.352641 -11.995460 -12.444125 7.768544 -0.707237 -15.069593 -0.185838 -1.708953 -0.009761 -71.397072 18.147448 -5.735865 -23.793909 0.776894 7.502732 -14.067772 11.070458 -2.763580 16.707907 -6.584839 -0.009292 -2.232887 22.837959 -83.606377 46.787979 -2.970523 34.842545 1.693857 -12.679908 -0.382620 -6.610339 11.940692 10.363070 9.615321 -1.757641 -1.242940 25.078382 -17.550909 -4.603111 -8.472839 -5.475462 -7.762590 9.777260 1.758049 1.154220 -17.489237 -9.120602 9.192418 
-53.024929 52.001801 56.011856 2.221146 11.299530 -42.168968 19.931166 1.034981 1.054868 -39.567848 -5.269920 2.098048 -10.466925 -12.144807 -12.312623 7.808943 -0.679165 -15.001122 -0.215150 -1.796839 -0.009761 -71.631073 18.084789 -5.401196 -24.063988 0.732375 7.218139 -14.089711 10.908025 -2.727683 16.463783 -6.457846 -0.009306 -1.751184 22.418081 -82.477371 48.470093 -2.696127 31.216522 1.715853 -12.962853 -0.395179 -6.980840 11.821798 10.475221 9.979924 -1.777959 -1.224724 24.979877 -17.391018 -4.694203 -8.665324 -5.560935 -7.628286 9.867365 1.747063 1.187490 -17.556826 -9.381448 9.140643 
-52.942398 51.995506 56.075588 2.390287 11.310580 -42.019867 19.774385 1.044758 1.015812 -39.635258 -4.733542 1.969087 -10.540687 -12.273796 -12.207754 7.781118 -0.688881 -14.913237 -0.263995 -1.894487 -0.009760 -71.890381 18.072475 -5.036176 -24.450653 0.683815 6.606758 -14.156738 11.256063 -2.827291 15.985284 -6.350346 -0.009330 -1.333775 22.500269 -81.973686 49.986008 -2.380899 27.173719 1.846867 -13.059554 -0.428923 -7.155603 11.741570 10.634808 10.161678 -1.747840 -1.281251 24.630859 -17.300287 -4.850528 -8.873446 -5.622150 -7.494916 10.029036 1.728322 1.194672 -17.565357 -9.615921 9.051631 
-52.855038 51.984814 56.142319 2.541602 11.265530 -41.889484 19.647232 1.064295 0.986521 -39.666336 -4.206820 1.840302 -10.602326 -12.306463 -12.119892 7.658718 -0.745703 -14.854897 -0.332369 -1.982365 -0.009760 -72.140289 18.073803 -4.862574 -24.782814 0.658093 6.304413 -14.259559 11.317482 -2.864764 15.439453 -6.220703 0.000000 -1.003998 23.001915 -82.204330 51.189686 -1.992296 22.330770 1.895243 -12.834698 -0.432691 -7.138333 11.688618 10.792891 10.042881 -1.747678 -1.274940 24.127708 -17.194141 -5.080869 -9.012011 -5.633460 -7.331203 10.224108 1.747857 1.196702 -17.665459 -9.843287 8.938635 
-52.762478 51.971233 56.209904 2.659409 11.145667 -41.757214 19.607740 1.093604 0.937702 -39.680794 -3.719064 1.702607 -10.614935 -12.259168 -12.108276 7.441685 -0.849650 -14.826025 -0.430039 -2.060474 -0.009759 -72.364914 18.140131 -4.681772 -25.198208 0.641529 6.052707 -14.435186 11.242441 -2.882539 14.950172 -6.057207 -0.009382 -0.726928 23.699358 -83.108131 52.287991 -1.505760 16.361717 1.945166 -12.814807 -0.442889 -6.941267 11.625363 10.917115 9.821109 -1.779110 -1.216363 23.281328 -17.039186 -5.384025 -9.087105 -5.611645 -7.195525 10.415128 1.729492 1.205708 -17.799807 -10.055919 8.853132 
-52.663609 51.955048 56.273651 2.714727 10.964420 -41.585632 19.626413 1.122918 0.869357 -39.688591 -3.299583 1.545469 -10.588436 -12.121962 -12.180423 7.059759 -0.991123 -14.855802 -0.546875 -2.080081 0.000354 -72.570206 18.302141 -4.467652 -25.684504 0.624068 5.834153 -14.557161 11.094248 -2.869279 14.628906 -5.859375 0.000000 -0.343228 24.382092 -84.385666 53.449490 -0.998525 10.445984 1.884259 -12.707887 -0.424285 -6.745709 11.575455 11.002314 9.679955 -1.788191 -1.229024 22.220629 -16.783474 -5.822502 -9.079412 -5.584041 -7.107898 10.612837 1.729904 1.216209 -17.875027 -10.283946 8.739578 
-52.558311 51.936386 56.328316 2.780233 10.747683 -41.346764 19.683418 1.162007 0.761958 -39.708134 -2.928865 1.359141 -10.473932 -11.962641 -12.323527 6.525407 -1.141684 -14.944597 -0.664404 -2.001840 -0.009759 -72.800720 18.514303 -4.225757 -26.248686 0.583158 5.472217 -14.809225 10.958690 -2.886273 14.443360 -5.625000 0.000957 0.291886 24.803337 -85.460625 54.906410 -0.469850 4.417762 1.734511 -12.767497 -0.393791 -6.669046 11.540445 11.014947 9.771559 -1.778923 -1.213711 21.198719 -16.457006 -6.239454 -9.037412 -5.542617 -7.097497 10.760739 1.730085 1.233820 -17.922930 -10.529707 8.651490 
-52.448128 51.915386 56.371399 2.864019 10.520585 -41.067120 19.768970 1.220633 0.615511 -39.749489 -2.616667 1.143616 -10.256026 -11.799870 -12.545100 5.892863 -1.282275 -15.101652 -0.762033 -1.845573 -0.009760 -73.033279 18.776533 -3.669675 -26.930393 0.537846 4.915791 -14.643591 10.834243 -2.820777 14.364350 -5.334454 -0.009419 1.124981 24.834522 -86.111710 56.532516 0.051699 -1.438640 1.900758 -12.239250 -0.413390 -6.737042 11.539278 10.963259 10.075996 -1.787679 -1.269615 20.315500 -16.052750 -6.681985 -8.981179 -5.446899 -7.107588 10.878478 1.739889 1.221331 -17.955931 -10.715260 8.565554 
-52.335697 51.892204 56.402264 2.989329 10.255753 -40.773548 19.795759 1.269487 0.478831 -39.753975 -2.294621 0.928163 -9.965532 -11.693880 -12.780283 5.226834 -1.365928 -15.287833 -0.849902 -1.718605 -0.009760 -73.236084 19.055672 -2.859604 -27.654558 0.462834 4.007999 -13.932129 10.943858 -2.705026 14.344876 -4.992653 -0.009425 2.178938 24.507048 -86.304253 58.217506 0.553059 -7.181409 2.737041 -10.924874 -0.530053 -6.862405 11.545436 10.938758 10.457258 -1.757947 -1.287956 19.505093 -15.622641 -7.066439 -8.915196 -5.341191 -7.156631 10.909084 1.727083 1.251481 -17.952309 -10.947984 8.498566 
-52.223145 51.866398 56.423553 3.137615 9.985421 -40.501747 19.783138 1.298805 0.341930 -39.702335 -1.923671 0.732665 -9.657687 -11.673961 -13.009889 4.612412 -1.383274 -15.512609 -0.918257 -1.689297 -0.009760 -73.376740 19.226997 -2.183837 -28.268562 0.399287 3.330408 -13.602801 11.179958 -2.684436 14.335152 -4.748512 -0.009429 3.511156 23.957415 -86.270500 60.104618 1.080252 -13.240579 4.611392 -9.169183 -0.747281 -6.991769 11.609946 10.876283 10.752930 -1.768741 -1.285311 18.668879 -15.146535 -7.441965 -8.892902 -5.173235 -7.147925 10.956005 1.749695 1.226249 -17.970394 -11.135229 8.411891 
